<?xml version="1.0" encoding="iso-8859-1"?>
<!-- Generator: Adobe Illustrator 19.0.0, SVG Export Plug-In . SVG Version: 6.00 Build 0)  -->
<svg version="1.1" id="Layer_1" xmlns="http://www.w3.org/2000/svg" xmlns:xlink="http://www.w3.org/1999/xlink" x="0px" y="0px"
	 viewBox="0 0 512 512" style="enable-background:new 0 0 512 512;" xml:space="preserve">
<path style="fill:#FA6E51;" d="M0,256.006C0,397.402,114.606,512.004,255.996,512C397.394,512.004,512,397.402,512,256.006
	C512.009,114.61,397.394,0,255.996,0C114.606,0,0,114.614,0,256.006z"/>
<path style="fill:#E8573F;" d="M511.131,276.232c-0.089-0.089-0.177-0.179-0.268-0.268c-0.495-0.502-143.331-143.34-143.833-143.834
	C338.714,103.536,299.417,85.757,256,85.757c-86.048,0-156.053,69.715-156.053,155.409v148.317c0,10.722,4.35,20.836,11.936,27.736
	c0.153,0.14,0.337,0.225,0.492,0.361c0.355,0.353,87.328,87.346,87.483,87.482c0.275,0.273,0.509,0.58,0.766,0.869
	c17.839,3.934,36.352,6.07,55.374,6.07C390.579,512.004,500.81,408.159,511.131,276.232z"/>
<g>
	<path style="fill:#F4F6F9;" d="M256,85.757c-86.048,0-156.053,69.714-156.053,155.409v148.316c0,10.723,4.35,20.836,11.935,27.737
		c7.332,6.671,16.992,9.843,27.126,8.846c18.467-1.746,31.872-17.671,31.872-37.856v-14.832c0-5.812,2.629-11.409,7.402-15.745
		c5.355-4.869,12.704-7.363,19.683-6.719c12.022,1.143,22.569,12.234,22.569,23.739v14.831c0,10.723,4.35,20.836,11.935,27.737
		c7.335,6.671,16.999,9.843,27.126,8.846c18.467-1.746,31.872-17.671,31.872-37.856v-14.832c0-5.812,2.629-11.409,7.402-15.745
		c5.351-4.869,12.698-7.363,19.683-6.719c12.022,1.143,22.569,12.234,22.569,23.739v13.556c0,20.186,13.404,36.111,31.872,37.856
		c1.202,0.117,2.394,0.173,3.578,0.173c8.829,0,17.083-3.138,23.549-9.019c7.585-6.899,11.935-17.013,11.935-27.737V241.166
		C412.053,155.471,342.048,85.757,256,85.757z M397.867,389.482c0,6.74-2.66,13.023-7.294,17.242
		c-4.34,3.949-10.107,5.791-16.244,5.223c-12.486-1.185-19.022-12.843-19.022-23.739v-13.556c0-19.022-15.887-36.007-35.414-37.856
		c-1.219-0.117-2.435-0.173-3.65-0.173c-9.815,0-19.458,3.727-26.918,10.509c-7.765,7.066-12.043,16.389-12.043,26.246v14.831
		c0,10.896-6.535,22.555-19.022,23.739c-6.158,0.569-11.901-1.275-16.244-5.223c-4.635-4.219-7.294-10.501-7.294-17.242v-14.831
		c0-19.022-15.887-36.007-35.414-37.856c-11.045-1.046-22.183,2.716-30.57,10.335c-7.765,7.066-12.043,16.389-12.043,26.246v14.831
		c0,10.896-6.535,22.555-19.022,23.739c-6.144,0.569-11.904-1.275-16.244-5.223c-4.635-4.219-7.294-10.501-7.294-17.242V241.166
		c0-77.868,63.643-141.222,141.867-141.222s141.867,63.355,141.867,141.222v148.316H397.867z"/>
	<path style="fill:#F4F6F9;" d="M188.613,192.157c-13.687,0-24.827,11.139-24.827,24.827s11.139,24.827,24.827,24.827
		s24.827-11.139,24.827-24.827C213.44,203.295,202.301,192.157,188.613,192.157z M188.613,227.623c-5.868,0-10.64-4.772-10.64-10.64
		s4.772-10.64,10.64-10.64s10.64,4.772,10.64,10.64C199.253,222.85,194.481,227.623,188.613,227.623z"/>
	<path style="fill:#F4F6F9;" d="M323.387,192.157c-13.687,0-24.827,11.139-24.827,24.827s11.139,24.827,24.827,24.827
		c13.687,0,24.827-11.139,24.827-24.827C348.213,203.295,337.074,192.157,323.387,192.157z M323.387,227.623
		c-5.868,0-10.64-4.772-10.64-10.64s4.772-10.64,10.64-10.64c5.868,0,10.64,4.772,10.64,10.64
		C334.027,222.85,329.254,227.623,323.387,227.623z"/>
</g>
<g>
</g>
<g>
</g>
<g>
</g>
<g>
</g>
<g>
</g>
<g>
</g>
<g>
</g>
<g>
</g>
<g>
</g>
<g>
</g>
<g>
</g>
<g>
</g>
<g>
</g>
<g>
</g>
<g>
</g>
</svg>
